<svg id="visual" viewBox="0 0 1260 800" width="1260" height="800" xmlns="http://www.w3.org/2000/svg" xmlns:xlink="http://www.w3.org/1999/xlink" version="1.1"><rect x="0" y="0" width="1260" height="800" fill="#f3f3f3"></rect><defs><linearGradient id="grad1_0" x1="36.5%" y1="0%" x2="100%" y2="100%"><stop offset="18.5%" stop-color="#f3f3f3" stop-opacity="1"></stop><stop offset="81.5%" stop-color="#f3f3f3" stop-opacity="1"></stop></linearGradient></defs><defs><linearGradient id="grad2_0" x1="0%" y1="0%" x2="63.5%" y2="100%"><stop offset="18.5%" stop-color="#f3f3f3" stop-opacity="1"></stop><stop offset="81.5%" stop-color="#f3f3f3" stop-opacity="1"></stop></linearGradient></defs><g transform="translate(1260, 0)"><path d="M0 522.4C-58.7 485.3 -117.4 448.1 -174.1 420.4C-230.8 392.6 -285.5 374.2 -340.8 340.8C-396.2 307.5 -452.2 259.2 -482.6 199.9C-513 140.6 -517.7 70.3 -522.4 0L0 0Z" fill="#2876A0"></path></g><g transform="translate(0, 800)"><path d="M0 -522.4C71.7 -513.3 143.4 -504.3 194 -468.4C244.6 -432.6 274.2 -369.9 324.6 -324.6C374.9 -279.2 446.2 -251.1 482.6 -199.9C519.1 -148.7 520.7 -74.3 522.4 0L0 0Z" fill="#2876A0"></path></g></svg>