<?xml version="1.0" standalone="no"?><svg xmlns="http://www.w3.org/2000/svg" viewBox="0 0 1440 320"><path fill="#2876A0" fill-opacity="1" d="M0,224L40,202.7C80,181,160,139,240,138.7C320,139,400,181,480,186.7C560,192,640,160,720,154.7C800,149,880,171,960,186.7C1040,203,1120,213,1200,181.3C1280,149,1360,75,1400,37.3L1440,0L1440,320L1400,320C1360,320,1280,320,1200,320C1120,320,1040,320,960,320C880,320,800,320,720,320C640,320,560,320,480,320C400,320,320,320,240,320C160,320,80,320,40,320L0,320Z"></path></svg>