<svg id="visual" viewBox="0 0 1260 800" width="1260" height="800" xmlns="http://www.w3.org/2000/svg" xmlns:xlink="http://www.w3.org/1999/xlink" version="1.1"><rect x="0" y="0" width="1260" height="800" fill="#F3f3f3"></rect><path d="M0 233L42 256.7C84 280.3 168 327.7 252 328.7C336 329.7 420 284.3 504 281.8C588 279.3 672 319.7 756 362.2C840 404.7 924 449.3 1008 434C1092 418.7 1176 343.3 1218 305.7L1260 268L1260 801L1218 801C1176 801 1092 801 1008 801C924 801 840 801 756 801C672 801 588 801 504 801C420 801 336 801 252 801C168 801 84 801 42 801L0 801Z" fill="#272727" stroke-linecap="round" stroke-linejoin="miter"></path></svg>